<svg viewBox="0 0 70.277 77.825" xmlns="http://www.w3.org/2000/svg"><ellipse cx="18.656" cy="26.644" rx="7.373" ry="10.635" transform="matrix(.7071 -.7071 .7071 .7071 -13.376 20.9955)"/><path d="m21.873 37.045c-3.138 0-6.619-1.609-9.314-4.304-2.187-2.187-3.656-4.852-4.136-7.505-.511-2.82.139-5.304 1.83-6.995 1.307-1.307 3.1-1.998 5.187-1.998 3.138 0 6.619 1.608 9.313 4.303 4.634 4.634 5.668 11.139 2.307 14.5-1.307 1.308-3.101 1.999-5.187 1.999zm-6.434-18.301c-1.409 0-2.591.438-3.419 1.265-1.094 1.094-1.498 2.792-1.138 4.782.39 2.157 1.613 4.353 3.443 6.183 2.236 2.236 5.058 3.571 7.547 3.571 1.409 0 2.591-.438 3.419-1.265 2.346-2.347 1.29-7.368-2.307-10.965-2.235-2.236-5.055-3.571-7.545-3.571z"/><path d="m52.342 61.581c-.32 0-.64-.123-.884-.367l-26.166-26.167c-.488-.488-.488-1.28 0-1.768s1.279-.488 1.768 0l26.166 26.167c.488.488.488 1.28 0 1.768-.245.244-.564.367-.884.367z"/><path d="m48.404 37.045c-2.087 0-3.88-.691-5.187-1.998-3.362-3.362-2.327-9.867 2.307-14.5 2.693-2.695 6.175-4.303 9.313-4.303 2.087 0 3.881.69 5.188 1.998 3.361 3.361 2.327 9.866-2.307 14.5-2.695 2.694-6.176 4.303-9.314 4.303zm6.433-18.301c-2.489 0-5.31 1.335-7.545 3.571-3.597 3.597-4.653 8.618-2.307 10.965.828.828 2.01 1.265 3.419 1.265 2.489 0 5.31-1.335 7.546-3.571 3.597-3.597 4.653-8.618 2.307-10.965-.828-.828-2.011-1.265-3.42-1.265z"/><path d="m17.935 61.581c-.32 0-.64-.123-.884-.367-.488-.488-.488-1.279 0-1.768l26.167-26.166c.488-.488 1.279-.488 1.768 0s.488 1.279 0 1.768l-26.168 26.166c-.244.244-.563.367-.883.367z"/><path d="m44.762 35.64c-.787 0-1.274-.322-1.544-.592-2.602-2.601 4.267-9.733 5.67-11.137 2.889-2.889 7.134-6.262 9.592-6.262.787 0 1.274.322 1.545.592 1.459 1.458-.173 4.155-.709 5.042-1.122 1.853-2.884 4.018-4.961 6.095-2.889 2.888-7.135 6.262-9.593 6.262zm13.276-15.405c-1.288.393-4.09 2.15-7.383 5.443-3.433 3.433-5.089 6.202-5.453 7.38 1.267-.383 4.077-2.142 7.385-5.449 3.427-3.427 5.083-6.192 5.451-7.374z"/><path d="m35.139 77.825c-1.856 0-3.616-.426-4.955-1.199l-25.229-14.566c-2.778-1.604-4.955-5.374-4.955-8.582v-29.131c0-3.208 2.177-6.979 4.955-8.583l25.229-14.565c1.338-.773 3.098-1.199 4.955-1.199s3.616.426 4.955 1.199l25.229 14.565c2.778 1.604 4.955 5.374 4.955 8.583v29.131c0 3.208-2.177 6.979-4.955 8.582l-25.229 14.566c-1.339.773-3.099 1.199-4.955 1.199zm0-75.325c-1.403 0-2.754.315-3.705.864l-25.229 14.565c-2.009 1.16-3.705 4.098-3.705 6.418v29.131c0 2.318 1.696 5.258 3.705 6.417l25.229 14.566c1.902 1.098 5.508 1.098 7.41 0l25.229-14.566c2.009-1.159 3.705-4.099 3.705-6.417v-29.131c0-2.319-1.696-5.258-3.705-6.417l-25.229-14.566c-.951-.549-2.302-.864-3.705-.864z"/><path d="m38.688 67.259-.008-.008-.01-.01-8.041-10.361v10.037c0 .146-.053.27-.158.369-.1.105-.223.158-.369.158s-.27-.053-.369-.158c-.105-.1-.158-.223-.158-.369v-11.576c0-.252.117-.418.352-.5.24-.082.436-.023.588.176l8.051 10.361v-10.037c0-.146.051-.27.15-.369.105-.105.229-.158.369-.158.146 0 .271.053.377.158.1.1.15.223.15.369v11.576c0-.012 0 0 0 .035 0 .018-.004.035-.01.053 0 .012-.002.025-.008.043-.006.023-.012.041-.018.053s-.012.027-.018.045-.016.031-.027.043c-.006.012-.014.027-.025.045s-.023.031-.035.043c-.006.006-.018.018-.035.035-.029.023-.039.029-.027.018.012-.006.006 0-.018.018-.006.006-.014.012-.025.018-.018.012-.035.021-.053.027-.012.006-.023.012-.035.018-.018.006-.039.012-.063.018-.018.006-.029.008-.035.008-.035.006-.066.01-.096.01-.035 0-.07-.004-.105-.01l-.035-.008c-.029-.012-.053-.021-.07-.027-.006-.006-.018-.014-.035-.025-.023-.012-.045-.023-.063-.035-.006-.006-.018-.016-.035-.027-.018-.018-.025-.025-.025-.025s-.011-.014-.028-.031z"/><path d="m39.084 67.944c-.063 0-.125-.006-.188-.016l-.281-.109-.001.002c-.044-.022-.083-.045-.116-.066l-.185-.163-7.185-9.253v8.578c0 .284-.109.537-.314.732-.35.371-1.057.392-1.445-.021-.186-.175-.295-.428-.295-.712v-11.575c0-.465.25-.82.687-.973.125-.043.246-.063.364-.063.216 0 .528.07.786.407l7.153 9.208v-8.579c0-.278.103-.527.297-.723.402-.401 1.059-.394 1.453 0 .194.195.297.444.297.723l-.011 11.706c-.003.054-.014.106-.031.159l-.078.219.014.034-.256.243-.003-.002-.044.032.003.003-.148.096c-.022.01-.054.023-.086.034l-.291.069c.016.004-.041.01-.096.01zm-.027-1.019c.011.007.021.013.03.02l.024-.051v-11.553l-.047 11.496-8.945-11.514-.045 11.594.055-11.498z"/></svg>